HIERARCHY
ROOT Hips
{
 OFFSET 0.000000 0.000000 0.000000
 CHANNELS 6 Xposition Yposition Zposition Yrotation Xrotation Zrotation
 JOINT Chest
 {
  OFFSET 0.000000 9.876139 0.000104
  CHANNELS 3 Yrotation Xrotation Zrotation
  JOINT Chest2
  {
   OFFSET 0.000000 10.876137 -0.000189
   CHANNELS 3 Yrotation Xrotation Zrotation
   JOINT Chest3
   {
    OFFSET 0.000000 9.827065 0.000000
    CHANNELS 3 Yrotation Xrotation Zrotation
    JOINT Chest4
    {
     OFFSET 0.000000 9.827065 0.000000
     CHANNELS 3 Yrotation Xrotation Zrotation
     JOINT Neck
     {
      OFFSET 0.000000 13.837564 0.000000
      CHANNELS 3 Yrotation Xrotation Zrotation
      JOINT Head
      {
       OFFSET 0.000000 9.147059 -0.000448
       CHANNELS 3 Yrotation Xrotation Zrotation
       End Site
       {
        OFFSET 0.000000 17.513050 -0.000234
       }
      }
     }
     JOINT RightCollar
     {
      OFFSET -3.007721 7.720841 0.000000
      CHANNELS 3 Yrotation Xrotation Zrotation
      JOINT RightShoulder
      {
       OFFSET -14.032560 0.000000 0.000000
       CHANNELS 3 Yrotation Xrotation Zrotation
       JOINT RightElbow
       {
        OFFSET -30.066962 0.000000 0.000000
        CHANNELS 3 Yrotation Xrotation Zrotation
        JOINT RightWrist
        {
         OFFSET -24.575761 0.000000 0.000000
         CHANNELS 3 Yrotation Xrotation Zrotation
         JOINT Prop1
         {
          OFFSET -3.508170 -1.002334 -2.004669
          CHANNELS 3 Yrotation Xrotation Zrotation
          End Site
          {
           OFFSET -75.170729 -33.091210 23.052389
          }
         }
         End Site
         {
          OFFSET -18.342718 0.000000 0.000000
         }
        }
       }
      }
     }
     JOINT LeftCollar
     {
      OFFSET 3.007721 7.720841 0.000000
      CHANNELS 3 Yrotation Xrotation Zrotation
      JOINT LeftShoulder
      {
       OFFSET 14.032560 0.000000 0.000000
       CHANNELS 3 Yrotation Xrotation Zrotation
       JOINT LeftElbow
       {
        OFFSET 30.066962 0.000000 0.000000
        CHANNELS 3 Yrotation Xrotation Zrotation
        JOINT LeftWrist
        {
         OFFSET 24.575761 0.000000 0.000000
         CHANNELS 3 Yrotation Xrotation Zrotation
         End Site
         {
          OFFSET 18.342718 0.000000 0.000000
         }
        }
       }
      }
     }
    }
   }
  }
 }
 JOINT RightHip
 {
  OFFSET -8.019680 -0.000509 -0.000052
  CHANNELS 3 Yrotation Xrotation Zrotation
  JOINT RightKnee
  {
   OFFSET 0.000000 -41.754945 0.000049
   CHANNELS 3 Yrotation Xrotation Zrotation
   JOINT RightAnkle
   {
    OFFSET 0.000000 -40.737371 0.000083
    CHANNELS 3 Yrotation Xrotation Zrotation
    JOINT RightToe
    {
     OFFSET 0.000000 -6.498123 14.692914
     CHANNELS 3 Yrotation Xrotation Zrotation
     End Site
     {
      OFFSET 0.000000 -1.503208 6.410318
     }
    }
   }
  }
 }
 JOINT LeftHip
 {
  OFFSET 8.019680 -0.000509 -0.000052
  CHANNELS 3 Yrotation Xrotation Zrotation
  JOINT LeftKnee
  {
   OFFSET 0.000000 -41.754945 0.000049
   CHANNELS 3 Yrotation Xrotation Zrotation
   JOINT LeftAnkle
   {
    OFFSET 0.000000 -40.737371 0.000083
    CHANNELS 3 Yrotation Xrotation Zrotation
    JOINT LeftToe
    {
     OFFSET 0.000000 -6.498123 14.692914
     CHANNELS 3 Yrotation Xrotation Zrotation
     End Site
     {
      OFFSET 0.000000 -1.503208 6.410318
     }
    }
   }
  }
 }
}
MOTION
Frames: 6
Frame Time: 0.016667
-12.865559 79.176064 27.649948 -149.217104 -7.039802 1.106545 -2.573235 12.112612 0.958506 -1.141582 5.411258 0.475668 -1.141582 5.411258 0.475668 -0.859772 4.057576 0.366621 -12.357234 13.098992 4.573110 -25.135361 -9.803892 13.444904 6.102404 5.162192 1.338417 -32.023119 -65.983439 77.351368 20.773995 -1.668250 9.782996 -4.821450 4.469479 -17.489202 -26.016861 -9.261869 -96.933533 5.776541 -1.149832 -13.713560 17.343852 -5.688945 -72.213593 -33.339242 9.567182 8.329363 11.884812 0.669633 4.261486 -3.016027 -36.312909 -25.205850 -10.935810 43.918369 -1.882978 2.905491 6.187780 6.573924 0.029638 0.987554 1.826709 36.886217 -9.710069 26.581082 -35.979669 39.084209 -24.981413 -3.169698 -30.907319 2.672000 0.298439 0.381419 -0.543410
-12.494804 79.050633 27.101459 -149.620966 -7.101820 0.861826 -1.875295 12.052707 1.188403 -1.212676 5.411992 0.428802 -1.212676 5.411992 0.428802 -0.912637 4.058165 0.332130 -12.385548 13.162959 4.656235 -25.204348 -9.659459 13.592946 6.095067 5.105772 1.397301 -33.030405 -65.812313 78.062842 20.844876 -1.404474 10.208748 -5.090506 4.378000 -17.850739 -25.992569 -8.923728 -96.213315 5.831601 -1.269443 -13.711204 17.967621 -5.850815 -71.941656 -33.309652 9.725140 8.000357 11.813402 0.650298 4.456940 -2.788764 -35.891341 -24.818455 -14.297972 42.972573 -3.531656 4.723768 8.529881 4.920700 -0.225852 -0.355363 2.332716 36.764450 -9.538389 27.208994 -38.138557 38.071203 -25.938238 -1.158948 -31.227267 2.192025 0.583952 0.595370 -0.521277
-12.246644 78.997597 26.624205 -149.653778 -7.163955 1.262295 -1.744103 11.824422 0.699958 -1.281419 5.460719 0.383359 -1.281419 5.460719 0.383359 -0.963770 4.094760 0.298783 -12.402665 13.224101 4.715451 -25.244124 -9.528886 13.693258 6.170765 5.206477 1.441521 -33.689517 -65.736907 78.427378 20.902932 -1.264107 10.618021 -5.253583 4.143728 -17.992176 -26.050789 -8.615246 -95.622622 5.973960 -1.354402 -13.712211 18.308611 -5.977632 -71.712682 -33.188615 9.683663 7.779416 11.707317 0.645821 4.699491 -1.694857 -36.250103 -25.647893 -17.194809 42.296870 -5.861154 6.110190 11.746969 4.020941 -0.453776 -1.846337 2.949770 36.806571 -9.044051 27.132332 -39.931976 36.982673 -26.517412 0.566947 -31.084777 1.957620 0.598992 0.574098 -0.603446
-12.060912 79.007030 26.049278 -148.855038 -7.777864 1.240615 -2.567180 12.305449 0.472129 -1.315232 5.444660 0.350736 -1.315232 5.444660 0.350736 -0.988813 4.082765 0.274604 -12.393480 13.266495 4.734506 -25.224314 -9.448973 13.714583 6.340774 5.541570 1.403724 -34.599875 -65.850581 79.073488 20.908576 -1.399153 11.134867 -5.456424 4.179968 -18.054078 -26.129821 -8.455557 -95.233365 6.180195 -1.500265 -13.730802 18.436951 -5.860273 -71.480075 -33.069070 9.505908 7.707439 11.634492 0.634808 4.890583 -0.535721 -36.067746 -26.641017 -15.386085 43.840926 -4.256825 3.070843 12.503311 3.074905 0.087076 -2.386872 3.061947 36.399966 -8.534873 27.526238 -40.687456 36.488040 -26.313401 1.477868 -30.811689 1.843913 0.098816 0.415834 -0.887263
-11.988912 79.008848 25.563798 -148.790418 -7.988243 1.386737 -2.783491 12.518957 0.161129 -1.330869 5.391269 0.321642 -1.330869 5.391269 0.321642 -1.000259 4.042776 0.252825 -12.357485 13.282334 4.740313 -25.155681 -9.427064 13.708728 6.494253 5.779982 1.334064 -35.046512 -65.890816 79.553904 20.976793 -1.095259 11.327420 -5.649199 3.804536 -17.881806 -26.233191 -8.408735 -94.911362 6.299155 -1.515985 -13.771463 18.577859 -5.803093 -71.343282 -32.956960 9.382700 7.716251 11.619425 0.621791 5.008188 0.228666 -36.171345 -26.657215 -8.914080 45.448652 -0.016151 -1.407024 11.535214 2.659158 0.077629 -2.023222 2.913232 37.081562 -8.431397 27.576308 -40.081068 36.901871 -25.342460 0.838269 -30.758739 1.932541 -0.499476 0.225159 -1.177014
-12.051672 79.035953 25.183112 -148.828759 -8.206577 1.561877 -2.860079 12.554391 -0.159970 -1.353189 5.410171 0.279421 -1.353189 5.410171 0.279421 -1.016616 4.057035 0.221422 -12.318243 13.293918 4.759879 -25.086990 -9.410080 13.728338 6.480465 5.574968 1.345263 -33.410513 -65.542298 78.496015 21.075419 -1.345279 10.990689 -5.844756 3.524058 -17.645023 -26.416392 -8.309011 -94.724832 6.255319 -1.448240 -13.816748 18.693680 -5.837367 -71.230334 -32.774438 9.322384 7.780463 11.640013 0.619133 5.051613 -0.337647 -36.539750 -25.799070 -5.267307 46.584483 1.747477 -3.063968 10.452037 2.164824 0.094387 -1.585701 2.679134 37.990647 -8.346803 27.641414 -39.078945 37.408303 -24.291326 -0.244897 -30.571984 2.209051 -1.132284 -0.082934 -1.445125
